<?xml version="1.0" encoding="UTF-8" standalone="no"?>
<!-- Created with Inkscape (http://www.inkscape.org/) -->
<svg
   xmlns:dc="http://purl.org/dc/elements/1.1/"
   xmlns:cc="http://creativecommons.org/ns#"
   xmlns:rdf="http://www.w3.org/1999/02/22-rdf-syntax-ns#"
   xmlns:svg="http://www.w3.org/2000/svg"
   xmlns="http://www.w3.org/2000/svg"
   xmlns:xlink="http://www.w3.org/1999/xlink"
   xmlns:sodipodi="http://sodipodi.sourceforge.net/DTD/sodipodi-0.dtd"
   xmlns:inkscape="http://www.inkscape.org/namespaces/inkscape"
   id="svg2"
   sodipodi:version="0.32"
   inkscape:version="0.46"
   width="1438"
   height="1341"
   version="1.0"
   sodipodi:docbase="C:\Documents and Settings\ugtu767t\Desktop\wikitravel\Italy\Rome"
   sodipodi:docname="Rome district borders1.svg"
   inkscape:output_extension="org.inkscape.output.svg.inkscape">
  <metadata
     id="metadata7">
    <rdf:RDF>
      <cc:Work
         rdf:about="">
        <dc:format>image/svg+xml</dc:format>
        <dc:type
           rdf:resource="http://purl.org/dc/dcmitype/StillImage" />
      </cc:Work>
    </rdf:RDF>
  </metadata>
  <defs
     id="defs5" />
  <sodipodi:namedview
     inkscape:window-height="756"
     inkscape:window-width="743"
     inkscape:pageshadow="2"
     inkscape:pageopacity="0.0"
     guidetolerance="10.0"
     gridtolerance="10.0"
     objecttolerance="10.0"
     borderopacity="1.0"
     bordercolor="#666666"
     pagecolor="#ffffff"
     id="base"
     inkscape:zoom="0.19931869"
     inkscape:cx="784.69"
     inkscape:cy="810.7288"
     inkscape:window-x="66"
     inkscape:window-y="-8"
     inkscape:current-layer="layer4"
     showgrid="false" />
  <g
     inkscape:groupmode="layer"
     id="layer5"
     inkscape:label="background" />
  <g
     inkscape:groupmode="layer"
     id="layer1"
     inkscape:label="Base">
    <image
       style="display:inline"
       y="-575.94983"
       x="-629.42859"
       id="image2502"
       height="2111.4185"
       width="2500"
       sodipodi:absref="C:\Documents and Settings\ugtu767t\Desktop\wikitravel\Europe\Italy\Rome\OSM1.png"
       xlink:href="OSM1.png" />
    <image
       y="228.31845"
       x="199.62103"
       id="image3347"
       height="1048.8003"
       width="1242.297"
       sodipodi:absref="C:\Documents and Settings\ugtu767t\Desktop\wikitravel\Europe\Italy\Rome\OSM2.png"
       xlink:href="OSM2.png"
       style="stroke:none" />
    <image
       y="477.77179"
       x="479.13953"
       id="image3434"
       height="525.71442"
       width="622"
       sodipodi:absref="C:\Documents and Settings\ugtu767t\Desktop\wikitravel\Europe\Italy\Rome\OSM3.png"
       xlink:href="OSM3.png" />
    <path
       style="opacity:1;fill:#f2ff46;fill-opacity:0.58709675;fill-rule:nonzero;stroke:none;stroke-width:1;stroke-linecap:butt;stroke-miterlimit:4;stroke-dasharray:none;stroke-dashoffset:0;stroke-opacity:1"
       d="M 733.9375 957.125 C 733.41343 957.15359 732.92634 957.29241 732.59375 957.625 C 731.70682 958.51187 727.26488 962.5134 726.15625 963.84375 C 725.04759 965.1741 719.28125 980.46875 719.28125 980.46875 L 715.0625 987.125 C 715.06252 987.12499 711.94792 987.36161 708.84375 986.03125 C 706.63043 985.08269 701.00015 982.80084 697.34375 981.15625 C 697.23661 982.43567 697.07508 983.54344 696.875 984.34375 C 695.10919 991.4068 685.38669 1017.4494 684.0625 1019.6562 C 682.73833 1021.8615 677 1028.0312 677 1028.0312 C 677.00001 1028.0312 644.35953 1069.988 642.59375 1071.3125 C 640.82813 1072.6371 616.55113 1096.8869 614.34375 1099.0938 C 612.13672 1101.3027 575.47333 1136.6383 560.90625 1149 C 546.33911 1161.3611 523.82822 1189.1477 518.53125 1200.625 C 513.23407 1212.1022 503.07797 1224.0291 504.84375 1259.3438 C 504.84376 1259.3436 508.82015 1281.4144 511.46875 1294.6562 C 514.11734 1307.8982 531.34375 1356.9062 531.34375 1356.9062 L 541 1384.0938 C 556.44899 1381.6818 581.01497 1378 587 1378 C 595.77991 1378 604.57454 1372.9945 610.21875 1365.4688 C 615.86298 1357.9432 619.60366 1362.9426 625.875 1352.2812 L 658.5 1329.7188 C 658.5 1329.7188 674.79111 1323.4461 681.0625 1320.9375 C 687.33386 1318.429 703.65623 1319.6875 703.65625 1319.6875 C 703.65625 1319.6875 713.66611 1313.4105 719.9375 1312.1562 C 726.20886 1310.9021 738.75988 1305.8836 745.03125 1303.375 C 751.30261 1300.8664 751.31248 1301.5 751.3125 1301.5 C 751.3125 1301.5 761.98503 1293.9794 766.375 1290.8438 C 770.76495 1287.7081 787.67467 1290.2166 791.4375 1290.8438 C 795.20032 1291.4709 810.26416 1290.1897 815.28125 1289.5625 C 820.29835 1288.9354 830.3288 1284.5625 834.71875 1284.5625 C 839.10871 1284.5625 853.51844 1281.4332 857.28125 1282.6875 C 861.04407 1283.9418 879.23292 1292.0789 884.25 1296.4688 C 889.26709 1300.8587 913.73934 1324.0518 916.875 1327.1875 C 920.01068 1330.3232 938.20809 1356.054 941.34375 1358.5625 C 944.47944 1361.0711 961.38486 1358.569 967.65625 1356.6875 C 973.92762 1354.8061 982.08305 1354.8104 985.21875 1355.4375 C 988.35443 1356.0647 1002.1725 1364.833 1006.5625 1367.9688 C 1010.9524 1371.1044 1024.1078 1376.75 1029.125 1376.75 C 1034.1421 1376.75 1106.2557 1377.3793 1113.7812 1376.125 C 1121.3068 1374.8708 1143.8956 1364.1981 1147.0312 1361.0625 C 1150.167 1357.9268 1165.2188 1337.8522 1165.2188 1335.3438 C 1165.2188 1332.8351 1150.1691 1322.1982 1146.4062 1319.0625 C 1142.6435 1315.9268 1138.2501 1303.3694 1138.25 1295.8438 C 1138.25 1288.3181 1146.4063 1277.6691 1146.4062 1273.9062 C 1146.4062 1270.1434 1144.5128 1245.6733 1140.75 1240.6562 C 1136.9871 1235.6391 1098.1044 1208.044 1094.9688 1204.2812 C 1091.833 1200.5185 1081.1776 1179.1926 1074.9062 1168.5312 C 1068.6349 1157.87 1068 1146.5774 1068 1142.1875 C 1068 1141.4932 1067.7979 1139.041 1067.5 1135.9062 C 1066.3156 1135.7544 1056.895 1134.4268 1049.4062 1129.4375 C 1038.1115 1121.9126 1027.9466 1109.2667 1025.375 1107.0625 C 1020.985 1103.2997 1014.0667 1080.7272 1012.8125 1078.2188 C 1011.5582 1075.7101 999.03126 1046.875 999.03125 1046.875 L 997.78125 1043.125 C 997.78125 1043.125 958.29762 1028.8184 954.75 1028.375 C 951.20238 1027.9315 926.37351 1023.037 924.15625 1022.5938 C 921.93898 1022.1503 906.86756 1021.7187 905.09375 1021.7188 C 903.31997 1021.7188 888.68006 1025.7143 886.90625 1028.375 C 885.13243 1031.0357 880.71131 1038.5536 878.9375 1043.875 C 877.16372 1049.1965 871.81697 1057.18 869.15625 1055.4062 C 866.49553 1053.6325 764.51339 979.13988 756.53125 973.375 C 748.54909 967.6101 737.23066 958.06845 736.34375 957.625 C 735.78946 957.34782 734.81095 957.07736 733.9375 957.125 z M 697.28125 962.4375 C 697.4478 966.50037 697.56817 970.61233 697.5625 974.3125 C 697.56806 970.61154 697.44966 966.50394 697.28125 962.4375 z "
       id="path2421" />
  </g>
  <g
     inkscape:groupmode="layer"
     id="layer2"
     inkscape:label="Regions"
     style="display:inline;opacity:0.56521739">
    <path
       style="opacity:1;fill:#e69558;fill-opacity:0.58709674999999995;stroke:none;stroke-width:3;stroke-linecap:butt;stroke-miterlimit:4;stroke-dasharray:none;stroke-dashoffset:0;stroke-opacity:1"
       d="M 674.9375,542.78125 L 580.71875,589.0625 C 580.71875,589.0625 580.72518,588.13571 578.84375,585 C 577.80204,583.26383 573.60858,579.39626 569.96875,576.21875 C 565.05498,581.86975 560.64517,586.50418 559.15625,587.0625 C 555.62483,588.38692 530.47278,604.26934 526.5,605.59375 C 522.52705,606.91794 462.92607,623.25 457.1875,623.25 C 451.44894,623.25002 415.24223,627.64829 412.59375,628.53125 C 409.94527,629.41409 398.02359,640.01138 395.375,642.21875 C 392.72626,644.42573 383.03497,653.25735 382.59375,659.4375 C 382.15215,665.61731 380.36688,676.22228 384.78125,686.375 C 389.19562,696.52777 409.51562,733.6014 411.28125,736.25 C 413.04702,738.89857 430.68347,763.61687 434.65625,768.03125 C 438.62904,772.44557 454.98013,789.66785 457.1875,791.875 C 459.39451,794.08208 505.73738,844.41335 521.1875,857.65625 C 536.63738,870.89913 540.1754,879.28891 552.09375,881.9375 C 564.01247,884.58589 569.31619,885.90625 572.40625,885.90625 C 575.49624,885.90627 598.8866,883.24613 601.09375,883.6875 C 603.30093,884.12895 617.85099,881.49591 631.09375,881.9375 C 643.06389,882.33646 657.17793,888.49035 665,894.5625 C 665.86402,893.37798 666.66041,892.27292 666.96875,891.65625 C 667.90946,889.77484 670.40623,884.75962 670.40625,881.9375 C 670.40625,879.11538 665.71876,868.43748 665.71875,868.4375 C 665.71875,868.4375 665.71766,863.75641 666.03125,861.875 C 666.34482,859.99359 670.71552,856.85016 671.65625,854.96875 C 672.59695,853.08734 683.28017,837.09806 683.59375,835.84375 C 683.90732,834.58948 688.27589,832.72085 689.84375,832.09375 C 691.41159,831.46661 692.99681,828.01068 693.9375,824.875 C 694.8782,821.73931 694.87285,821.72411 695.5,820.15625 C 696.12713,818.58841 696.43214,817.35125 698,815.15625 C 699.56785,812.96128 699.87285,811.3846 700.5,808.5625 C 701.12714,805.74039 701.43751,804.16479 701.4375,801.65625 C 701.4375,799.14771 698.31251,797.59377 698.3125,797.59375 C 698.3125,797.59375 688.28554,787.25322 687.03125,786.3125 C 685.77697,785.37179 673.53124,769.03978 673.53125,766.53125 C 673.53125,764.02271 669.78123,733.62927 669.78125,732.375 C 669.78125,731.12073 669.46022,729.21979 671.96875,728.90625 C 674.4773,728.59268 681.68321,725.78122 682.9375,725.78125 C 684.19177,725.78125 694.24358,723.28128 696.125,723.28125 C 698.00641,723.28125 713.05718,714.19074 714.625,713.25 C 716.19284,712.3093 726.21874,709.46878 726.21875,709.46875 L 674.9375,542.78125 z"
       id="path3438" />
    <path
       id="path3443"
       style="opacity:1;fill:#f2ff46;fill-opacity:0.58709674999999995;stroke:none;stroke-width:3;stroke-linecap:butt;stroke-miterlimit:4;stroke-dasharray:none;stroke-dashoffset:0;stroke-opacity:1"
       d="M 351.5,669.65625 C 349.61859,669.65625 318.57103,673.09267 316.0625,673.40625 C 313.55395,673.71982 289.42121,670.59267 285.03125,670.90625 C 280.64129,671.21982 261.81571,689.40091 260.875,690.96875 C 259.93429,692.53659 260.87501,702.89874 260.875,705.09375 C 260.875,707.28873 264.02057,748.35575 267.15625,754 C 270.29193,759.64422 275.64023,784.09618 280.34375,792.5625 C 285.04728,801.02884 287.87074,818.60149 289.125,825.5 C 290.37928,832.3985 295.36754,845.54865 297.5625,849.625 C 299.75748,853.70139 304.77485,859.03684 306.65625,866.5625 C 308.53766,874.08813 304.1552,885.38487 304.46875,891.65625 C 304.78232,897.92762 311.99144,902.30717 314.5,903.875 C 317.00854,905.44284 317.96874,932.09615 317.96875,940.5625 C 317.96875,949.02884 311.37821,949.04971 310.4375,952.8125 C 309.49679,956.57532 320.45699,963.14874 323.90625,965.34375 C 327.3555,967.53872 330.81249,978.512 330.8125,984.15625 C 330.8125,989.80048 327.36965,1007.36 328.9375,1011.75 C 330.50534,1016.14 336.46447,1025.8622 337.71875,1029.625 C 338.97302,1033.3878 337.41265,1043.0993 335.53125,1050.625 C 333.64985,1058.1506 331.74252,1072.2706 333.9375,1075.4062 C 336.13248,1078.542 345.5422,1080.4279 351.5,1083.25 C 357.4578,1086.0722 363.11539,1092.0131 365.9375,1097.3438 C 368.75961,1102.6744 376.27271,1111.7739 378.78125,1113.9688 C 381.28979,1116.1637 388.20487,1114.5938 392.28125,1114.5938 C 396.35763,1114.5938 400.11539,1113.6553 402.9375,1113.9688 C 405.75961,1114.2823 421.42897,1126.8438 423.9375,1126.8438 C 426.44605,1126.8438 439.92894,1126.1907 442.4375,1125.25 C 444.94604,1124.3093 447.77697,1112.1013 449.03125,1109.9062 C 450.28552,1107.7114 456.86644,1105.5 459.375,1105.5 C 461.88355,1105.5 475.99251,1103.3136 478.1875,1103 C 480.38248,1102.6865 490.74252,1097.3437 492.9375,1097.3438 C 495.13247,1097.3438 508.29648,1082.2908 513,1079.4688 C 517.70352,1076.6467 528.36216,1075.0874 532.125,1076.9688 C 535.88782,1078.8501 552.51734,1086.0573 556.59375,1087.625 C 560.67014,1089.1928 569.42898,1082.625 571.9375,1082.625 C 574.44605,1082.625 581.04967,1087.6435 584.8125,1091.4062 C 586.56273,1093.1565 589.59333,1095.6426 592.34375,1097.8125 C 597.33051,1092.2671 607.58872,1081.0126 609.90625,1079.6875 C 612.99623,1077.9207 637.29297,1050.5444 639.5,1048.7812 C 641.70715,1047.0145 664.64835,1016.5684 669.0625,1005.5312 C 673.47688,994.49513 678.78512,985.20731 678.34375,979.46875 C 677.90236,973.7302 672.58609,959.16028 669.9375,955.1875 C 667.28888,951.21471 659.36325,940.6369 657.15625,939.3125 C 654.94887,937.98829 638.15619,932.23826 634.625,930.03125 C 631.09345,927.82387 621.8361,924.73446 619.1875,922.96875 C 616.53914,921.20299 606.375,920.34375 606.375,920.34375 L 600.21875,916.8125 C 600.21874,916.8125 588.2855,915.48826 584.3125,913.28125 C 580.33957,911.07386 570.63313,909.73826 566.21875,907.53125 C 561.80473,905.32388 553.4181,902.66816 548.5625,901.34375 C 543.70654,900.01959 537.53156,897.37122 534,894.28125 C 530.46861,891.19108 516.32852,882.36775 507.5,872.65625 C 498.67146,862.94472 414.35941,773.76578 412.59375,772 C 410.82823,770.23424 400.67985,755.25009 398.03125,751.71875 C 395.38266,748.18731 363.15998,692.10585 362.71875,680.1875 C 362.61852,677.48222 362.82603,674.11106 363.25,670.46875 C 357.97648,670.06847 352.46113,669.65624 351.5,669.65625 z M 626.09375,881.90625 C 622.75374,881.96485 619.45292,882.15451 616.375,882.40625 C 619.45092,882.15633 622.75467,881.964 626.09375,881.90625 z M 552.09375,881.9375 C 558.05311,883.26169 562.36047,884.24511 565.5625,884.90625 C 562.36213,884.2441 558.05311,883.26169 552.09375,881.9375 z M 633.375,882.09375 C 634.13782,882.16222 634.88286,882.23459 635.65625,882.34375 C 634.8936,882.23656 634.12721,882.16126 633.375,882.09375 z M 635.65625,882.34375 C 636.15174,882.41368 636.65781,882.50808 637.15625,882.59375 C 636.6517,882.50711 636.15771,882.41423 635.65625,882.34375 z M 637.15625,882.59375 C 637.64867,882.67831 638.1307,882.74452 638.625,882.84375 C 638.13674,882.74585 637.64272,882.67736 637.15625,882.59375 z M 639,882.9375 C 639.73927,883.09124 640.47879,883.25344 641.21875,883.4375 C 640.47906,883.25371 639.73907,883.091 639,882.9375 z M 600.4375,883.625 C 600.14419,883.62024 599.77217,883.641 599.34375,883.65625 C 600.20074,883.62607 600.81786,883.63233 601.09375,883.6875 C 600.9558,883.65991 600.73081,883.62976 600.4375,883.625 z M 643.125,883.9375 C 643.75938,884.11634 644.40104,884.30194 645.03125,884.5 C 644.40066,884.30164 643.75972,884.11662 643.125,883.9375 z M 645.03125,884.5 C 645.80574,884.7434 646.57929,885.01142 647.34375,885.28125 C 646.57838,885.01087 645.80662,884.74389 645.03125,884.5 zM 628.59375,890 C 626.37649,890.22173 612.86457,893.34372 611.3125,893.34375 C 609.76042,893.34375 605.77085,896.43153 604.21875,896.875 C 602.66667,897.31845 599.10717,897.77532 595.78125,898.21875 C 592.45536,898.6622 584.46872,899.09377 584.46875,899.09375 C 584.69048,899.31548 582.68155,898.88542 583.125,900.4375 C 583.56845,901.98958 586.70088,902.87502 588.03125,902.875 C 589.36161,902.875 594.01937,901.96876 594.90625,901.96875 C 595.79315,901.96875 603.54163,903.76638 605.09375,904.875 C 606.64583,905.98363 658.09525,926.38545 660.3125,927.9375 C 662.52976,929.48958 669.62648,934.80805 671.84375,937.46875 C 674.06101,940.12946 675.59226,938.78123 678.03125,938.78125 C 680.47024,938.78125 680.48807,937.88689 681.375,937 C 682.2619,936.1131 681.37797,933.9018 681.15625,931.90625 C 680.93452,929.91072 680.26487,926.38691 679.15625,925.5 C 678.04762,924.6131 673.16519,916.17414 672.5,914.84375 C 671.83482,913.5134 662.95241,906.20836 661.84375,904.65625 C 660.73512,903.10417 644.77379,893.12499 643,893.125 C 641.22619,893.125 630.81102,889.77828 628.59375,890 z" />
    <path
       style="opacity:1;fill:#ae58e6;fill-opacity:0.58709674999999995;stroke:none;stroke-width:3;stroke-linecap:butt;stroke-miterlimit:4;stroke-dasharray:none;stroke-dashoffset:0;stroke-opacity:1"
       d="M 504.65625 285.78125 C 502.80902 286.4563 501.0815 287.089 499.8125 287.40625 C 494.79541 288.66052 488.53124 296.81249 488.53125 296.8125 L 203.1875 392.15625 C 203.1875 392.15625 214.46875 461.11432 214.46875 464.25 C 214.46875 467.38568 213.21876 468.65625 213.21875 468.65625 C 213.21875 468.65625 203.19605 471.78125 200.6875 471.78125 C 198.17896 471.78125 184.38568 474.30823 181.25 475.5625 C 178.11432 476.81677 176.21874 477.42469 176.21875 481.1875 C 176.21875 484.95032 169.32104 484.34375 166.8125 484.34375 C 164.30395 484.34375 156.78981 484.34375 154.28125 484.34375 C 151.7727 484.34375 143.60657 490.59376 139.84375 490.59375 C 136.08094 490.59375 136.09376 489.3523 136.09375 486.84375 C 136.09375 484.3352 113.50855 489.96662 111 490.59375 C 108.49145 491.22088 108.50427 503.76844 107.25 507.53125 C 105.99573 511.29407 109.75 508.80394 109.75 511.3125 C 109.75 513.82104 99.102296 520.70805 96.59375 523.84375 C 94.085204 526.97944 92.187499 523.84373 92.1875 523.84375 C 92.1875 523.84375 85.919065 524.46019 82.15625 526.96875 C 78.393432 529.47729 76.500004 536.38701 76.5 542.03125 C 76.5 547.67548 70.229433 559.58307 67.09375 562.71875 C 63.958068 565.85443 55.191775 572.14343 53.9375 575.90625 C 52.683227 579.66907 52.664796 589.05396 50.15625 591.5625 C 47.647704 594.07105 43.914794 601.60016 41.40625 599.71875 C 38.897705 597.83734 35.750001 600.34375 35.75 600.34375 C 35.75 600.34375 20.071046 610.37073 17.5625 611.625 C 15.053954 612.87927 23.824523 618.54542 29.46875 623.5625 C 35.112977 628.57959 38.893431 624.81251 42.65625 624.8125 C 46.419068 624.8125 51.42682 631.70808 54.5625 634.84375 C 57.698182 637.97944 57.685362 641.11006 58.3125 645.5 C 58.939636 649.88996 61.458068 651.15627 64.59375 651.15625 C 67.729432 651.15625 77.132747 647.37929 84.03125 646.125 C 90.92975 644.87073 101.60363 646.12502 107.875 646.125 C 114.14636 646.125 126.04754 651.77059 130.4375 654.90625 C 134.82745 658.04193 163.67895 663.06465 166.1875 662.4375 C 168.69605 661.81037 185.64557 668.09804 188.78125 666.84375 C 191.91693 665.58948 232.67682 658.06252 235.8125 658.0625 C 238.94818 658.0625 270.91828 664.93325 276.5625 666.1875 C 278.45818 666.60876 280.50523 669.02647 282.375 672.03125 C 283.48217 671.36947 284.41028 670.95061 285.03125 670.90625 C 289.42121 670.59267 313.55395 673.71982 316.0625 673.40625 C 318.57103 673.09267 349.61859 669.65625 351.5 669.65625 C 352.46113 669.65624 357.97648 670.06847 363.25 670.46875 C 364.69286 658.0594 368.77806 642.44307 372.875 638.6875 C 378.17219 633.83188 391.40625 618.40625 391.40625 618.40625 C 391.40625 618.40623 391.84366 613.53497 395.375 613.09375 C 398.90641 612.65217 405.10959 607.8125 406.875 607.8125 C 408.64079 607.81247 415.68729 603.81654 419.21875 603.375 C 422.75003 602.93374 424.50766 602.5 427.15625 602.5 C 429.80485 602.5 445.69128 601.19138 448.78125 600.75 C 451.87106 600.30859 456.7264 600.28125 459.375 600.28125 C 462.0236 600.28124 469.0895 598.96875 473.0625 598.96875 C 477.03542 598.96877 489.41391 595.8791 492.0625 595.4375 C 494.71088 594.99615 519.87878 586.60157 522.96875 585.71875 C 526.05891 584.83592 551.65625 568.9375 551.65625 568.9375 C 551.65626 568.93752 565.76175 555.70731 567.96875 549.96875 C 570.17593 544.2302 577.68341 527.90269 578.125 524.8125 C 578.56637 521.72252 577.6875 517.29697 577.6875 512 C 577.6875 506.70281 577.24621 492.57853 574.15625 483.75 C 571.06606 474.92128 541.94534 422.39487 541.0625 420.1875 C 540.17968 417.98049 521.19941 364.12121 519.875 361.03125 C 518.55085 357.94116 507.94143 319.98856 507.5 314.25 C 507.28923 311.50983 505.97125 298.78052 504.65625 285.78125 z "
       id="path3460" />
    <path
       style="opacity:1;fill:#7bd5d5;fill-opacity:0.65806454000000003;stroke:none;stroke-width:3;stroke-linecap:butt;stroke-miterlimit:4;stroke-dasharray:none;stroke-dashoffset:0;stroke-opacity:1"
       d="M 356.09375 37.46875 L 331.8125 42.78125 L 337.125 48.5 C 337.125 48.5 348.60158 55.566269 351.25 58.65625 C 353.89854 61.746253 353.43718 61.296794 356.96875 63.0625 C 360.49994 64.828213 378.60136 74.10927 381.25 75.875 C 383.8986 77.640713 415.70296 86.925726 417.46875 88.25 C 419.23443 89.57429 454.53488 99.699123 461.15625 101.90625 C 467.77762 104.11342 475.28099 112.08955 482.34375 119.59375 C 489.40672 127.09809 498.22642 148.72617 500.875 158.4375 C 503.5236 168.14884 504.40624 191.53094 504.40625 195.0625 C 504.40625 198.59391 501.78124 248.92156 501.78125 254.21875 C 501.78125 259.51572 507.05861 308.5116 507.5 314.25 C 507.94143 319.98856 518.55085 357.94116 519.875 361.03125 C 521.19941 364.12121 540.17968 417.98049 541.0625 420.1875 C 541.94534 422.39487 571.06606 474.92128 574.15625 483.75 C 577.24621 492.57853 577.6875 506.70281 577.6875 512 C 577.6875 517.29697 578.56637 521.72252 578.125 524.8125 C 577.68341 527.90269 570.17593 544.2302 567.96875 549.96875 C 565.76175 555.70731 551.65626 568.93752 551.65625 568.9375 C 551.65625 568.9375 526.05891 584.83592 522.96875 585.71875 C 519.87878 586.60157 494.71088 594.99615 492.0625 595.4375 C 489.41391 595.8791 477.03542 598.96877 473.0625 598.96875 C 469.0895 598.96875 462.0236 600.28124 459.375 600.28125 C 456.7264 600.28125 451.87106 600.30859 448.78125 600.75 C 445.69128 601.19138 429.80485 602.5 427.15625 602.5 C 424.50766 602.5 422.75003 602.93374 419.21875 603.375 C 415.68729 603.81654 408.64079 607.81247 406.875 607.8125 C 405.10959 607.8125 398.90641 612.65217 395.375 613.09375 C 391.84366 613.53497 391.40625 618.40623 391.40625 618.40625 C 391.40625 618.40625 378.17219 633.83188 372.875 638.6875 C 367.57788 643.54324 362.27715 668.26877 362.71875 680.1875 C 363.15998 692.10585 395.38266 748.18731 398.03125 751.71875 C 400.67985 755.25009 410.82823 770.23424 412.59375 772 C 414.35941 773.76578 498.67146 862.94472 507.5 872.65625 C 516.32852 882.36775 530.46861 891.19108 534 894.28125 C 537.53156 897.37122 543.70654 900.01959 548.5625 901.34375 C 553.4181 902.66816 561.80473 905.32388 566.21875 907.53125 C 570.63313 909.73826 580.33957 911.07386 584.3125 913.28125 C 588.2855 915.48826 600.21874 916.8125 600.21875 916.8125 L 606.375 920.34375 C 606.375 920.34375 616.53914 921.20299 619.1875 922.96875 C 621.8361 924.73446 631.09345 927.82387 634.625 930.03125 C 638.15619 932.23826 654.94887 937.98829 657.15625 939.3125 C 659.36325 940.6369 667.28888 951.21471 669.9375 955.1875 C 672.58609 959.16028 677.90236 973.7302 678.34375 979.46875 C 678.78512 985.20731 673.47688 994.49513 669.0625 1005.5312 C 664.64835 1016.5684 641.70715 1047.0145 639.5 1048.7812 C 637.29297 1050.5444 612.99623 1077.9207 609.90625 1079.6875 C 606.81621 1081.4543 589.62501 1100.875 589.625 1100.875 C 589.625 1100.875 531.34777 1157.8222 527.375 1160.0312 C 523.40222 1162.2381 510.1564 1181.6657 506.625 1187.4062 C 503.09344 1193.143 499.56297 1202.8533 492.5 1222.7188 C 485.43725 1242.5834 496.03126 1287.5938 496.03125 1287.5938 C 496.03125 1287.5938 502.64046 1312.772 504.40625 1317.1875 C 506.17203 1321.5997 521.625 1371.4848 521.625 1373.25 C 521.625 1375.0154 528.68751 1395.3101 528.6875 1398.8438 C 528.6875 1402.3736 536.62499 1427.0938 536.625 1427.0938 L 553.84375 1422.6875 L 548.125 1404.125 L 531.34375 1356.9062 C 531.34375 1356.9062 514.11734 1307.8981 511.46875 1294.6562 C 508.82015 1281.4144 504.84376 1259.3437 504.84375 1259.3438 C 503.07797 1224.0291 513.23407 1212.1022 518.53125 1200.625 C 523.82822 1189.1477 546.33911 1161.3611 560.90625 1149 C 575.47333 1136.6383 612.13672 1101.3028 614.34375 1099.0938 C 616.55113 1096.8869 640.82813 1072.6371 642.59375 1071.3125 C 644.35953 1069.988 677.00001 1028.0312 677 1028.0312 C 677 1028.0312 682.73833 1021.8615 684.0625 1019.6562 C 685.38669 1017.4493 695.10919 991.4068 696.875 984.34375 C 698.64067 977.281 696.43753 949.00811 696.4375 944.59375 C 696.4375 940.17953 674.37547 903.1214 667.3125 896.5 C 660.24975 889.87848 644.33665 882.37889 631.09375 881.9375 C 617.85099 881.49591 603.30093 884.12895 601.09375 883.6875 C 598.8866 883.24613 575.49624 885.90627 572.40625 885.90625 C 569.31619 885.90625 564.01247 884.58589 552.09375 881.9375 C 540.1754 879.28891 536.63738 870.89913 521.1875 857.65625 C 505.73738 844.41335 459.39451 794.08208 457.1875 791.875 C 454.98013 789.66785 438.62904 772.44557 434.65625 768.03125 C 430.68347 763.61687 413.04702 738.89857 411.28125 736.25 C 409.51562 733.6014 389.19562 696.52777 384.78125 686.375 C 380.36688 676.22228 382.15215 665.61731 382.59375 659.4375 C 383.03497 653.25735 392.72626 644.42573 395.375 642.21875 C 398.02359 640.01138 409.94527 629.41409 412.59375 628.53125 C 415.24223 627.64829 451.44894 623.25002 457.1875 623.25 C 462.92607 623.25 522.52705 606.91794 526.5 605.59375 C 530.47278 604.26934 555.62483 588.38692 559.15625 587.0625 C 562.68759 585.73831 582.55457 561.87935 586.96875 554.375 C 591.38312 546.87066 595.34374 516.87153 595.34375 510.25 C 595.34375 503.62863 594.90639 494.80534 591.375 478.03125 C 587.84344 461.25694 558.28123 417.53125 558.28125 417.53125 C 543.71394 383.09982 535.74999 343.81251 535.75 343.8125 L 527.8125 308.0625 C 527.8125 308.0625 526.49998 296.14449 526.5 293.9375 C 526.5 291.73013 521.19144 273.21124 520.75 270.5625 C 520.30863 267.9139 519.87503 254.21111 519.875 251.5625 C 519.875 248.91391 518.99588 234.3364 519.4375 228.15625 C 519.87872 221.97624 520.73829 214.03937 522.0625 209.625 C 523.3869 205.21084 522.96091 198.60244 523.84375 180.0625 C 524.72671 161.52241 502.20732 112.5005 496.46875 101.90625 C 490.73019 91.311971 469.09416 82.945547 458.5 78.53125 C 447.90569 74.116957 440.83983 75.437497 437.75 75.4375 C 434.66003 75.4375 416.57527 67.92213 401.125 62.625 C 385.6751 57.327832 356.09375 37.46875 356.09375 37.46875 z M 628.59375 890 C 630.81102 889.77828 641.22619 893.125 643 893.125 C 644.77379 893.12499 660.73512 903.10417 661.84375 904.65625 C 662.95241 906.20836 671.83482 913.5134 672.5 914.84375 C 673.16519 916.17414 678.04762 924.6131 679.15625 925.5 C 680.26487 926.38691 680.93452 929.91072 681.15625 931.90625 C 681.37797 933.9018 682.2619 936.1131 681.375 937 C 680.48807 937.88689 680.47024 938.78125 678.03125 938.78125 C 675.59226 938.78123 674.06101 940.12946 671.84375 937.46875 C 669.62648 934.80805 662.52976 929.48958 660.3125 927.9375 C 658.09525 926.38545 606.64583 905.98363 605.09375 904.875 C 603.54163 903.76638 595.79315 901.96875 594.90625 901.96875 C 594.01937 901.96876 589.36161 902.875 588.03125 902.875 C 586.70088 902.87502 583.56845 901.98958 583.125 900.4375 C 582.68155 898.88542 584.69048 899.31548 584.46875 899.09375 C 584.46872 899.09377 592.45536 898.6622 595.78125 898.21875 C 599.10717 897.77532 602.66667 897.31845 604.21875 896.875 C 605.77085 896.43153 609.76042 893.34375 611.3125 893.34375 C 612.86457 893.34372 626.37649 890.22173 628.59375 890 z "
       id="path3876" />
    <path
       style="opacity:1;fill:#2cdc0f;fill-opacity:0.62903224999999996;stroke:none;stroke-width:3;stroke-linecap:butt;stroke-miterlimit:4;stroke-dasharray:none;stroke-dashoffset:0;stroke-opacity:1"
       d="M 1103.0938,-467.71875 C 1102.8908,-467.72721 1102.696,-467.69545 1102.5,-467.65625 C 1096.2286,-466.40197 1043.5655,-456.37928 1033.5312,-455.125 C 1023.497,-453.87073 903.06113,-453.86085 894.28125,-448.84375 C 885.50134,-443.82666 836.59242,-435.06116 827.8125,-426.28125 C 819.0326,-417.50134 812.78126,-381.11804 812.78125,-364.8125 C 812.78125,-348.50695 825.31252,-315.90625 825.3125,-315.90625 L 836.59375,-282.03125 L 830.34375,-243.78125 C 830.34375,-243.78125 830.31758,-243.7743 819.65625,-227.46875 C 808.99493,-211.16321 766.36939,-213.67895 758.84375,-216.1875 C 751.31812,-218.69604 709.3034,-266.98424 693.625,-280.78125 C 677.94659,-294.57825 650.96952,-307.74787 641.5625,-308.375 C 632.15545,-309.00213 593.88863,-309.61084 580.71875,-304.59375 C 567.54889,-299.57666 505.4826,-298.96954 464.71875,-289.5625 C 423.95488,-280.15546 375.01386,-243.14526 334.25,-200.5 C 293.48614,-157.85472 292.25001,-71.9375 292.25,-71.9375 L 294.75,-37.4375 L 321.71875,9.59375 L 343.21875,39.03125 L 344.65625,39.96875 L 356.09375,37.46875 C 356.09375,37.46875 385.6751,57.327832 401.125,62.625 C 416.57527,67.92213 434.66003,75.4375 437.75,75.4375 C 440.83983,75.437497 447.90569,74.116957 458.5,78.53125 C 469.09416,82.945547 490.73019,91.311971 496.46875,101.90625 C 502.20732,112.5005 524.72671,161.52241 523.84375,180.0625 C 522.96091,198.60244 523.3869,205.21084 522.0625,209.625 C 520.73829,214.03937 519.87872,221.97624 519.4375,228.15625 C 518.99588,234.3364 519.875,248.91391 519.875,251.5625 C 519.87503,254.21111 520.30863,267.9139 520.75,270.5625 C 521.19144,273.21124 526.5,291.73013 526.5,293.9375 C 526.49998,296.14449 527.8125,308.0625 527.8125,308.0625 L 535.75,343.8125 C 535.74999,343.81251 543.71394,383.09982 558.28125,417.53125 C 558.28123,417.53125 587.84344,461.25694 591.375,478.03125 C 594.90639,494.80534 595.34375,503.62863 595.34375,510.25 C 595.34374,516.87153 591.38312,546.87066 586.96875,554.375 C 584.41572,558.71529 576.70991,568.46083 569.96875,576.21875 C 573.60858,579.39626 577.80204,583.26383 578.84375,585 C 580.72518,588.13571 580.71875,589.0625 580.71875,589.0625 L 674.9375,542.78125 L 692,598.21875 C 700.30445,594.82997 718.09272,586.58941 719.625,585.3125 C 721.50641,583.74466 761.64554,567.09911 764.78125,565.53125 C 767.91693,563.96341 796.15623,557.71874 796.15625,557.71875 C 796.15625,557.71875 803.99574,556.15414 805.25,556.78125 C 806.50427,557.40839 807.75001,557.40627 807.75,557.40625 C 807.75,557.40625 808.99891,548.28661 809.3125,546.71875 C 809.62607,545.15091 811.50001,540.78765 811.5,538.90625 C 811.5,537.02484 811.18748,514.13032 811.1875,512.5625 C 811.1875,510.99466 810.56248,491.53767 810.5625,489.65625 C 810.5625,487.77484 815.28017,475.22409 815.59375,473.65625 C 815.90731,472.08841 827.80611,453.28979 829.6875,450.78125 C 831.56891,448.27271 843.49251,430.38247 845.6875,428.1875 C 847.88248,425.99253 855.74254,415.03551 857.9375,413.78125 C 860.13248,412.52698 893.04752,405.94496 897.4375,403.75 C 901.82746,401.55502 933.79966,382.09803 937.5625,380.84375 C 941.32532,379.58948 947.59373,377.71876 947.59375,377.71875 L 940.71875,342.59375 C 940.71875,342.59375 942.59373,338.82105 942.59375,336.3125 C 942.59375,333.80395 958.24999,304.34374 958.25,304.34375 C 958.25,304.34375 966.43109,293.6819 968.3125,286.15625 C 970.1939,278.63061 972.06249,254.8125 972.0625,254.8125 C 972.0625,254.8125 985.235,243.52564 989.625,236 C 994.015,228.47437 1007.1682,220.30688 1012.8125,212.78125 C 1018.4567,205.25561 1036.6499,183.29621 1038.5312,178.90625 C 1040.4127,174.5163 1059.875,151.9375 1059.875,151.9375 L 1123.8438,74.1875 C 1123.8438,74.1875 1269.3266,-132.75562 1274.3438,-140.28125 C 1279.3608,-147.80689 1275.5936,-159.10791 1275.5938,-164.125 C 1275.5938,-169.14209 1271.8436,-196.73292 1271.8438,-201.75 C 1271.8438,-206.76709 1276.8436,-216.81811 1276.8438,-224.34375 C 1276.8438,-231.86939 1271.8436,-246.9076 1271.8438,-255.6875 C 1271.8438,-264.46741 1270.5938,-278.26977 1270.5938,-290.8125 C 1270.5938,-303.35522 1271.8436,-340.96583 1271.8438,-351 C 1271.8438,-361.03418 1259.2812,-384.87499 1259.2812,-384.875 C 1259.2812,-384.875 1251.7756,-376.11085 1244.25,-371.09375 C 1236.7243,-366.07666 1226.6635,-364.81249 1215.375,-364.8125 C 1204.0866,-364.8125 1191.5485,-374.84935 1186.5312,-382.375 C 1181.5141,-389.90063 1186.5314,-402.43456 1186.5312,-412.46875 C 1186.5312,-422.50294 1171.4857,-423.75 1166.4688,-423.75 C 1161.4516,-423.75 1142.6407,-414.99145 1128.8438,-417.5 C 1115.0468,-420.00854 1118.8125,-435.04541 1118.8125,-440.0625 C 1118.8125,-444.92281 1109.3837,-467.45652 1103.0938,-467.71875 z"
       id="path3468" />
    <path
       style="opacity:1;fill:#4984f5;fill-opacity:0.58709674999999995;stroke:none;stroke-width:3;stroke-linecap:butt;stroke-miterlimit:4;stroke-dasharray:none;stroke-dashoffset:0;stroke-opacity:1"
       d="M 1054.2188 374.59375 C 1052.0237 374.59376 1006.2263 374.90625 1004.0312 374.90625 C 1001.8364 374.90626 962.97516 374.90625 961.09375 374.90625 C 959.21236 374.90626 949.47409 377.40732 947.90625 377.09375 C 947.87708 377.08792 947.48072 377.00924 947.4375 377 L 947.59375 377.71875 C 947.59373 377.71876 941.32532 379.58948 937.5625 380.84375 C 933.79966 382.09803 901.82746 401.55502 897.4375 403.75 C 893.04752 405.94496 860.13248 412.52698 857.9375 413.78125 C 855.74254 415.03551 847.88248 425.99253 845.6875 428.1875 C 843.49251 430.38247 831.56891 448.27271 829.6875 450.78125 C 827.80611 453.28979 815.90731 472.08841 815.59375 473.65625 C 815.28017 475.22409 810.5625 487.77484 810.5625 489.65625 C 810.56248 491.53767 811.1875 510.99466 811.1875 512.5625 C 811.18748 514.13032 811.5 537.02484 811.5 538.90625 C 811.50001 540.78765 809.62607 545.15091 809.3125 546.71875 C 808.99891 548.28661 807.75 557.40625 807.75 557.40625 C 807.75001 557.40627 806.50427 557.40839 805.25 556.78125 C 803.99574 556.15414 796.15625 557.71875 796.15625 557.71875 C 796.15623 557.71874 767.91693 563.96341 764.78125 565.53125 C 761.64554 567.09911 721.50641 583.74466 719.625 585.3125 C 718.09272 586.58941 700.30445 594.82997 692 598.21875 L 726.21875 709.46875 C 726.21875 709.46875 725.61208 709.63321 725.53125 709.65625 C 726.03075 710.13483 726.38956 710.60617 726.53125 711.03125 C 727.47197 713.85337 738.125 750.5625 738.125 750.5625 C 738.12499 750.56251 759.76523 743.65625 764.46875 743.65625 C 769.17227 743.65626 777.02377 740.18964 779.21875 739.5625 C 781.4137 738.93534 791.77377 735.18536 793.96875 735.8125 C 796.16374 736.43961 804.31143 760.27698 804.625 761.53125 C 804.93858 762.7855 806.17895 764.34375 808.6875 764.34375 C 811.19603 764.34377 819.68002 762.16159 821.875 760.59375 C 824.06997 759.02592 846.30823 740.81677 847.5625 739.5625 C 848.81676 738.30821 907.78125 686.28125 907.78125 686.28125 L 953.25 645.8125 L 1017.2188 694.09375 L 1036.9688 701 L 1085.25 641.75 L 1189.0625 725.15625 L 1274.6562 791.3125 L 1303.1875 754 C 1303.1874 753.99998 1272.4709 715.13034 1271.8438 713.5625 C 1271.2165 711.99466 1270.8793 705.71527 1269.625 697.5625 C 1268.3707 689.40976 1226.0625 590.3125 1226.0625 590.3125 L 1300.0625 558.96875 C 1300.0625 558.96874 1301.3189 557.70673 1299.4375 552.0625 C 1297.5561 546.41826 1252.0625 427.5625 1252.0625 427.5625 C 1252.0625 427.56249 1249.2575 422.24786 1247.0625 422.875 C 1244.8675 423.50213 1178.6971 446.71768 1175.875 447.03125 C 1173.0529 447.34481 1158.9588 447.94711 1152.6875 445.125 C 1146.416 442.30288 1121.9514 423.82532 1117.875 420.0625 C 1113.7986 416.29967 1073.6442 385.2305 1068 381.78125 C 1062.3557 378.33201 1056.4136 374.59375 1054.2188 374.59375 z "
       id="path3476" />
    <path
       style="opacity:1;fill:#e6588a;fill-opacity:0.58709674999999995;stroke:none;stroke-width:3;stroke-linecap:butt;stroke-miterlimit:4;stroke-dasharray:none;stroke-dashoffset:0;stroke-opacity:1"
       d="M 1618.625 -137.15625 C 1618.625 -137.15625 1534.5881 -14.882205 1527.0625 -3.59375 C 1519.5369 7.6947049 1467.4836 69.795407 1463.0938 74.8125 C 1458.7037 79.829591 1434.2585 116.84295 1431.75 126.25 C 1429.2414 135.65704 1405.4191 151.3288 1401.6562 155.71875 C 1397.8935 160.1087 1279.8125 272.28124 1279.8125 272.28125 C 1279.8125 272.28125 1133.0298 400.00148 1130.8125 402.21875 C 1130.1546 402.87665 1123.3202 409.37667 1114.8125 417.5 C 1116.2861 418.69623 1117.371 419.59728 1117.875 420.0625 C 1121.9514 423.82532 1146.416 442.30288 1152.6875 445.125 C 1158.9588 447.94711 1173.0529 447.34481 1175.875 447.03125 C 1178.6971 446.71768 1244.8675 423.50213 1247.0625 422.875 C 1249.2575 422.24786 1252.0625 427.56249 1252.0625 427.5625 C 1252.0625 427.5625 1297.5561 546.41826 1299.4375 552.0625 C 1301.3189 557.70673 1300.0625 558.96874 1300.0625 558.96875 L 1226.0625 590.3125 C 1226.0625 590.3125 1268.3707 689.40976 1269.625 697.5625 C 1270.8793 705.71527 1271.2165 711.99466 1271.8438 713.5625 C 1272.4597 715.10246 1301.5707 751.97818 1302.625 753.3125 C 1302.6254 753.31303 1302.6558 753.31199 1302.6562 753.3125 C 1305.5922 753.80946 1307.9581 754.30826 1309.0625 754.75 C 1313.497 756.52381 1359.6399 811.52231 1363.1875 816.84375 C 1366.7352 822.16518 1389.7767 844.3274 1392.4375 847.875 C 1395.0982 851.42262 1398.6398 862.08485 1402.1875 867.40625 C 1405.7351 872.72768 1440.3467 888.66367 1444.7812 890.4375 C 1449.2157 892.21131 1493.5609 896.65625 1500.6562 896.65625 C 1507.7514 896.65625 1561.8542 901.09377 1568.0625 901.09375 C 1574.2709 901.09375 1640.7812 895.78125 1640.7812 895.78125 C 1640.7812 895.78125 1646.9955 862.9524 1649.6562 847.875 C 1652.3169 832.79762 1653.1874 817.73961 1653.1875 811.53125 C 1653.1875 805.32291 1653.1874 763.63097 1653.1875 753.875 C 1653.1875 744.11904 1678.0222 695.34077 1683.3438 690.90625 C 1688.6652 686.47172 1702.8498 649.22617 1711.7188 632.375 C 1720.5878 615.52381 1730.3541 573.81248 1736.5625 555.1875 C 1742.7708 536.5625 1738.3363 500.22172 1736.5625 486.03125 C 1734.7886 471.84078 1714.3838 454.09376 1709.0625 454.09375 C 1703.7411 454.09375 1691.3243 445.22022 1690.4375 438.125 C 1689.5506 431.02976 1689.5625 411.53124 1689.5625 411.53125 C 1689.5625 411.53125 1656.735 348.54763 1653.1875 345 C 1649.6399 341.45239 1647.875 310.42263 1647.875 306.875 C 1647.875 303.32738 1642.5625 249.22024 1642.5625 242.125 C 1642.5625 235.02976 1632.8021 205.75297 1626.5938 135.6875 C 1620.3854 65.62202 1625.5313 63.52991 1625.5312 54.75 C 1625.5312 45.970091 1637.4375 15.865114 1637.4375 9.59375 C 1637.4375 3.3223861 1650.625 -44.968498 1650.625 -72.5625 C 1650.625 -100.1565 1618.625 -137.15625 1618.625 -137.15625 z "
       id="path3484" />
    <path
       style="opacity:1;fill:#2cdc0f;fill-opacity:0.62903224999999996;stroke:none;stroke-width:3;stroke-linecap:butt;stroke-miterlimit:4;stroke-dasharray:none;stroke-dashoffset:0;stroke-opacity:1"
       d="M 1338.75,-472.03125 C 1333.1376,-472.28069 1324.1562,-468.28126 1324.1562,-468.28125 C 1324.1562,-468.28125 1298.4152,-435.47323 1293.0938,-432.8125 C 1287.7722,-430.15179 1268.2812,-402.64136 1268.2812,-399.09375 C 1268.2812,-397.57742 1264.6758,-390.20024 1260.5938,-382.28125 C 1263.5074,-376.51833 1271.8438,-359.35646 1271.8438,-351 C 1271.8435,-340.96583 1270.5938,-303.35522 1270.5938,-290.8125 C 1270.5938,-278.26977 1271.8438,-264.46741 1271.8438,-255.6875 C 1271.8435,-246.9076 1276.8438,-231.86939 1276.8438,-224.34375 C 1276.8435,-216.81811 1271.8438,-206.76709 1271.8438,-201.75 C 1271.8435,-196.73292 1275.5938,-169.14209 1275.5938,-164.125 C 1275.5935,-159.10791 1279.3608,-147.80689 1274.3438,-140.28125 C 1269.3265,-132.75562 1123.8438,74.1875 1123.8438,74.1875 L 1059.875,151.9375 C 1059.875,151.9375 1040.4127,174.5163 1038.5312,178.90625 C 1036.6499,183.29621 1018.4567,205.25561 1012.8125,212.78125 C 1007.1682,220.30688 994.015,228.47437 989.625,236 C 985.235,243.52564 972.0625,254.8125 972.0625,254.8125 C 972.06249,254.8125 970.1939,278.63061 968.3125,286.15625 C 966.43109,293.6819 958.25,304.34375 958.25,304.34375 C 958.24999,304.34374 942.59375,333.80395 942.59375,336.3125 C 942.59373,338.82105 940.71875,342.59375 940.71875,342.59375 L 947.46875,377 C 947.5488,377.01643 947.87895,377.08829 947.90625,377.09375 C 949.47409,377.40732 959.21236,374.90626 961.09375,374.90625 C 962.97516,374.90625 1001.8365,374.90626 1004.0312,374.90625 C 1006.2264,374.90625 1052.0237,374.59376 1054.2188,374.59375 C 1056.4135,374.59375 1062.3557,378.33201 1068,381.78125 C 1072.9464,384.80405 1104.3675,409.02087 1114.8125,417.5 C 1123.3202,409.37667 1130.1546,402.87665 1130.8125,402.21875 C 1133.0298,400.00148 1279.8125,272.28125 1279.8125,272.28125 C 1279.8125,272.28124 1397.8935,160.1087 1401.6562,155.71875 C 1405.4192,151.3288 1429.2414,135.65704 1431.75,126.25 C 1434.2585,116.84295 1458.7037,79.829591 1463.0938,74.8125 C 1467.4835,69.795407 1519.5369,7.694705 1527.0625,-3.59375 C 1534.5881,-14.882205 1618.625,-137.15625 1618.625,-137.15625 C 1618.625,-137.15625 1619.1285,-136.53756 1619.9062,-135.59375 C 1620.0703,-136.44208 1620.239,-137.12874 1620.375,-137.46875 C 1622.1488,-141.90328 1630.1399,-151.65178 1633.6875,-154.3125 C 1637.2351,-156.97322 1651.4167,-189.79167 1657.625,-196 C 1663.8334,-202.20833 1692.2292,-236.79612 1698.4375,-240.34375 C 1704.6459,-243.89137 1737.448,-259.87499 1743.6562,-259.875 C 1749.8646,-259.875 1737.4316,-282.92112 1728.5625,-286.46875 C 1719.6935,-290.01637 1695.7588,-313.08184 1690.4375,-313.96875 C 1685.1161,-314.85566 1653.1889,-329.91368 1646.0938,-331.6875 C 1638.9985,-333.46131 1631.8914,-333.4732 1628.3438,-330.8125 C 1624.7962,-328.15178 1611.5119,-298.88394 1610.625,-293.5625 C 1609.7381,-288.24108 1612.4018,-274.95088 1615.0625,-266.96875 C 1617.7232,-258.98661 1616.8125,-255.41519 1616.8125,-250.09375 C 1616.8125,-244.77232 1606.189,-245.6875 1599.0938,-245.6875 C 1591.9985,-245.6875 1581.3422,-258.07588 1569.8125,-268.71875 C 1558.2827,-279.36161 1521.9345,-292.66368 1517.5,-294.4375 C 1513.0655,-296.21131 1505.0625,-317.50595 1505.0625,-326.375 C 1505.0625,-335.24405 1506.8438,-348.55357 1506.8438,-353.875 C 1506.8438,-359.19643 1493.5416,-364.50297 1481.125,-368.9375 C 1468.7083,-373.37202 1422.5953,-406.20238 1415.5,-409.75 C 1408.4048,-413.29762 1386.2306,-443.44792 1385.3438,-449.65625 C 1384.4569,-455.86458 1364.0639,-456.75 1356.9688,-456.75 C 1349.8735,-456.75 1345.4419,-464.74106 1342.7812,-470.0625 C 1342.1161,-471.39285 1340.6208,-471.9481 1338.75,-472.03125 z"
       id="path3489" />
    <path
       style="opacity:1;fill:#5df8ff;fill-opacity:0.67096776000000002;stroke:none;stroke-width:3;stroke-linecap:butt;stroke-miterlimit:4;stroke-dasharray:none;stroke-dashoffset:0;stroke-opacity:1"
       d="M 953.25,645.8125 L 907.78125,686.28125 C 907.78125,686.28125 848.81676,738.30821 847.5625,739.5625 C 846.30823,740.81677 824.06997,759.02592 821.875,760.59375 C 819.68002,762.16159 811.19603,764.34377 808.6875,764.34375 C 806.17895,764.34375 804.93858,762.7855 804.625,761.53125 C 804.31143,760.27698 796.16374,736.43961 793.96875,735.8125 C 791.77377,735.18536 781.4137,738.93534 779.21875,739.5625 C 777.02377,740.18964 769.17227,743.65626 764.46875,743.65625 C 759.76523,743.65625 738.12499,750.56251 738.125,750.5625 C 738.125,750.5625 727.47197,713.85337 726.53125,711.03125 C 726.38956,710.60617 726.03075,710.13483 725.53125,709.65625 C 724.37798,709.98501 716.09015,712.37092 714.625,713.25 C 713.05718,714.19074 698.00641,723.28125 696.125,723.28125 C 694.24358,723.28128 684.19177,725.78125 682.9375,725.78125 C 681.68321,725.78122 674.4773,728.59268 671.96875,728.90625 C 669.46022,729.21979 669.78125,731.12073 669.78125,732.375 C 669.78123,733.62927 673.53125,764.02271 673.53125,766.53125 C 673.53124,769.03978 685.77697,785.37179 687.03125,786.3125 C 688.28554,787.25322 698.3125,797.59375 698.3125,797.59375 C 698.31251,797.59377 701.4375,799.14771 701.4375,801.65625 C 701.43751,804.16479 701.12714,805.74039 700.5,808.5625 C 699.87285,811.3846 699.56785,812.96128 698,815.15625 C 696.43214,817.35125 696.12713,818.58841 695.5,820.15625 C 694.87285,821.72411 694.8782,821.73931 693.9375,824.875 C 692.99681,828.01068 691.41159,831.46661 689.84375,832.09375 C 688.27589,832.72085 683.90732,834.58948 683.59375,835.84375 C 683.28017,837.09806 672.59695,853.08734 671.65625,854.96875 C 670.71552,856.85016 666.34482,859.99359 666.03125,861.875 C 665.71766,863.75641 665.71875,868.4375 665.71875,868.4375 C 665.71876,868.43748 670.40625,879.11538 670.40625,881.9375 C 670.40623,884.75962 667.90946,889.77484 666.96875,891.65625 C 666.66041,892.27292 665.86402,893.37798 665,894.5625 C 665.83946,895.21297 666.62856,895.85879 667.3125,896.5 C 674.37547,903.1214 696.4375,940.17953 696.4375,944.59375 C 696.43753,948.5079 698.18209,971.14478 697.34375,981.15625 C 701.00015,982.80084 706.63043,985.08269 708.84375,986.03125 C 711.94792,987.36161 715.06252,987.12499 715.0625,987.125 L 719.28125,980.46875 C 719.28125,980.46875 725.04759,965.1741 726.15625,963.84375 C 727.26488,962.5134 731.70682,958.51187 732.59375,957.625 C 733.48065,956.73809 735.45688,957.18152 736.34375,957.625 C 737.23066,958.06845 748.54909,967.6101 756.53125,973.375 C 764.51339,979.13988 866.49553,1053.6324 869.15625,1055.4062 C 871.81697,1057.18 877.16372,1049.1965 878.9375,1043.875 C 880.71131,1038.5536 885.13243,1031.0357 886.90625,1028.375 C 888.68006,1025.7143 903.31997,1021.7188 905.09375,1021.7188 C 906.86756,1021.7188 921.93898,1022.1503 924.15625,1022.5938 C 926.37351,1023.0371 951.20238,1027.9315 954.75,1028.375 C 958.29762,1028.8184 997.7812,1043.125 997.7812,1043.125 L 999.0312,1046.875 C 999.0312,1046.875 1011.5582,1075.7102 1012.8125,1078.2188 C 1014.0667,1080.7272 1020.985,1103.2997 1025.375,1107.0625 C 1027.9466,1109.2667 1038.1219,1121.9107 1049.4167,1129.4356 C 1057.4033,1134.7565 1067.945,1135.9658 1067.945,1135.9657 C 1069.7729,1132.5262 1124.22,1112.4586 1152.2322,1119.6802 C 1156.2338,1120.7118 1148.2713,1059.5013 1146.7285,1043.8542 C 1145.4675,1031.0653 1164.5146,1027.61 1165.8438,1026.8125 C 1168.9794,1024.9311 1181.8437,1005.4688 1181.8438,1005.4688 L 1113.1562,842.4375 C 1113.1562,842.4375 1075.2252,749.29297 1073.3438,745.84375 C 1071.4624,742.3945 1068.0225,743.65626 1061.4375,743.65625 C 1054.8526,743.65625 1030.6907,714.50534 1029.75,712.9375 C 1028.8093,711.36966 1029.75,710.09372 1029.75,710.09375 C 1029.75,710.09375 1028.5171,707.89636 1023.5,701.625 C 1021.9883,699.73535 1020.4001,697.24101 1018.9062,694.6875 L 1017.2188,694.09375 L 953.25,645.8125 z M 637.15625,882.59375 C 637.58584,882.66752 638.00867,882.73255 638.4375,882.8125 C 638.01127,882.72855 637.58107,882.66677 637.15625,882.59375 z M 639,882.9375 C 639.70731,883.08459 640.41707,883.23193 641.125,883.40625 C 640.41715,883.23158 639.70723,883.08439 639,882.9375 z M 641.46875,883.5 C 642.29334,883.70856 643.11707,883.94484 643.9375,884.1875 C 643.11723,883.9448 642.29333,883.70856 641.46875,883.5 z M 643.9375,884.1875 C 644.79917,884.44236 645.64841,884.71131 646.5,885 C 645.65352,884.71307 644.79407,884.44093 643.9375,884.1875 z"
       id="path3499"
       sodipodi:nodetypes="ccssssssscscssssssscssssssssscsscsscsccssssssssssccssscsssccssscsccccsccsccsccsc" />
    <path
       style="opacity:1;fill:#d5b41d;fill-opacity:0.73548387999999998;stroke:none;stroke-width:3;stroke-linecap:butt;stroke-miterlimit:4;stroke-dasharray:none;stroke-dashoffset:0;stroke-opacity:1"
       d="M 1085.25,641.75 L 1036.9688,701 L 1018.9062,694.6875 C 1020.4001,697.24101 1021.9883,699.73535 1023.5,701.625 C 1028.5171,707.89636 1029.75,710.09375 1029.75,710.09375 C 1029.75,710.09372 1028.8093,711.36966 1029.75,712.9375 C 1030.6907,714.50534 1054.8526,743.65625 1061.4375,743.65625 C 1068.0225,743.65626 1071.4624,742.3945 1073.3438,745.84375 C 1075.2251,749.29297 1113.1562,842.4375 1113.1562,842.4375 L 1181.8438,1005.4688 C 1181.8436,1005.4688 1168.9794,1024.9311 1165.8438,1026.8125 C 1164.5145,1027.61 1145.4577,1031.0548 1146.7188,1043.8438 C 1147.8406,1055.2211 1152.3448,1090.6062 1153.1875,1108.7188 C 1158.1747,1105.1597 1164.9432,1100.213 1167.1562,1098 C 1170.7038,1094.4523 1195.5521,1079.3482 1198.6562,1076.6875 C 1201.7604,1074.0268 1230.1325,1057.2054 1231.9062,1055.875 C 1233.6801,1054.5447 1253.6264,1044.3304 1255.8438,1043 C 1258.061,1041.6696 1288.2188,1031.4688 1288.2188,1031.4688 C 1288.2187,1031.4687 1316.1652,1019.9301 1320.1562,1018.1562 C 1324.1472,1016.3825 1360.5014,1002.1935 1362.7188,1001.75 C 1364.936,1001.3066 1373.3586,1000.4375 1376.9062,1000.4375 C 1380.4539,1000.4375 1429.6935,995.10417 1438.5625,992 C 1447.4317,988.89581 1460.2812,969.37798 1460.2812,964.5 C 1460.2813,959.62204 1463.3988,948.53125 1452.3125,939.21875 C 1441.2262,929.90627 1440.7812,929.90625 1440.7812,929.90625 L 1400.875,901.53125 C 1400.875,901.53123 1400.8527,896.66816 1404.8438,886.46875 C 1405.7983,884.02925 1408.1883,879.4175 1411.25,873.875 C 1406.6945,871.24756 1403.1861,868.90419 1402.1875,867.40625 C 1398.6398,862.08485 1395.0982,851.42262 1392.4375,847.875 C 1389.7767,844.3274 1366.7352,822.16518 1363.1875,816.84375 C 1359.6399,811.52231 1313.497,756.52381 1309.0625,754.75 C 1307.9581,754.30826 1305.5922,753.80946 1302.6562,753.3125 C 1302.6745,753.33563 1303.1875,754 1303.1875,754 L 1274.6562,791.3125 L 1189.0625,725.15625 L 1085.25,641.75 z"
       id="path3292" />
  </g>
  <g
     inkscape:groupmode="layer"
     id="layer3"
     inkscape:label="Text"
     style="display:inline">
    
    <text
       xml:space="preserve"
       style="display:inline;font-size:60px;font-style:italic;font-variant:normal;font-weight:normal;font-stretch:normal;text-align:center;line-height:100%;writing-mode:lr;text-anchor:middle;opacity:1;fill:#000000;fill-opacity:1;fill-rule:nonzero;stroke:none;stroke-width:6;stroke-linecap:butt;stroke-miterlimit:4;stroke-dasharray:none;stroke-dashoffset:0;stroke-opacity:1;font-family:Bitstream Vera Sans;-inkscape-font-specification:Bitstream Vera Sans Italic"
       x="541.57239"
       y="724.03455"
       id="text2431"
       sodipodi:linespacing="100%"><tspan
         sodipodi:role="line"
         id="tspan2433"
         x="552.00208"
         y="724.03455">Old </tspan><tspan
         sodipodi:role="line"
         x="541.57239"
         y="784.03455"
         id="tspan3205">Rome</tspan></text>
    <text
       sodipodi:linespacing="100%"
       id="text3207"
       y="944.03455"
       x="461.57239"
       style="display:inline;font-size:60px;font-style:italic;font-variant:normal;font-weight:normal;font-stretch:normal;text-align:center;line-height:100%;writing-mode:lr;text-anchor:middle;opacity:1;fill:#000000;fill-opacity:1;fill-rule:nonzero;stroke:none;stroke-width:6;stroke-linecap:butt;stroke-miterlimit:4;stroke-dasharray:none;stroke-dashoffset:0;stroke-opacity:1;font-family:Bitstream Vera Sans;-inkscape-font-specification:Bitstream Vera Sans Italic"
       xml:space="preserve"><tspan
         id="tspan3211"
         y="944.03455"
         x="461.57239"
         sodipodi:role="line">Trastavere</tspan></text>
    
    <text
       sodipodi:linespacing="100%"
       id="text3230"
       y="504.03455"
       x="361.57239"
       style="font-size:60px;font-style:italic;font-variant:normal;font-weight:normal;font-stretch:normal;text-align:center;line-height:100%;writing-mode:lr-tb;text-anchor:middle;opacity:1;fill:#000000;fill-opacity:1;fill-rule:nonzero;stroke:none;stroke-width:6;stroke-linecap:butt;stroke-miterlimit:4;stroke-dasharray:none;stroke-dashoffset:0;stroke-opacity:1;display:inline;font-family:Bitstream Vera Sans;-inkscape-font-specification:Bitstream Vera Sans Italic"
       xml:space="preserve"><tspan
         id="tspan3234"
         y="504.03455"
         x="361.57239"
         sodipodi:role="line">Vatican</tspan></text>
    <text
       xml:space="preserve"
       style="font-size:60px;font-style:italic;font-variant:normal;font-weight:normal;font-stretch:normal;text-align:center;line-height:100%;writing-mode:lr-tb;text-anchor:middle;opacity:1;fill:#000000;fill-opacity:1;fill-rule:nonzero;stroke:none;stroke-width:6;stroke-linecap:butt;stroke-miterlimit:4;stroke-dasharray:none;stroke-dashoffset:0;stroke-opacity:1;display:inline;font-family:Bitstream Vera Sans;-inkscape-font-specification:Bitstream Vera Sans Italic"
       x="921.57239"
       y="164.03455"
       id="text3238"
       sodipodi:linespacing="100%"><tspan
         sodipodi:role="line"
         x="921.57239"
         y="164.03455"
         id="tspan3242">North Center</tspan></text>
    <text
       sodipodi:linespacing="100%"
       id="text3244"
       y="484.03455"
       x="1521.5724"
       style="font-size:60px;font-style:italic;font-variant:normal;font-weight:normal;font-stretch:normal;text-align:center;line-height:100%;writing-mode:lr-tb;text-anchor:middle;opacity:1;fill:#000000;fill-opacity:1;fill-rule:nonzero;stroke:none;stroke-width:6;stroke-linecap:butt;stroke-miterlimit:4;stroke-dasharray:none;stroke-dashoffset:0;stroke-opacity:1;display:inline;font-family:Bitstream Vera Sans;-inkscape-font-specification:Bitstream Vera Sans Italic"
       xml:space="preserve"><tspan
         id="tspan3248"
         y="484.03455"
         x="1521.5724"
         sodipodi:role="line">Nomentano</tspan></text>
    <text
       xml:space="preserve"
       style="font-size:60px;font-style:italic;font-variant:normal;font-weight:normal;font-stretch:normal;text-align:center;line-height:100%;writing-mode:lr-tb;text-anchor:middle;opacity:1;fill:#000000;fill-opacity:1;fill-rule:nonzero;stroke:none;stroke-width:6;stroke-linecap:butt;stroke-miterlimit:4;stroke-dasharray:none;stroke-dashoffset:0;stroke-opacity:1;display:inline;font-family:Bitstream Vera Sans;-inkscape-font-specification:Bitstream Vera Sans Italic"
       x="1001.5724"
       y="584.03455"
       id="text3252"
       sodipodi:linespacing="100%"><tspan
         sodipodi:role="line"
         x="1001.5724"
         y="584.03455"
         id="tspan3254">Modern Center</tspan></text>
    <text
       sodipodi:linespacing="100%"
       id="text3256"
       y="864.03455"
       x="1281.5724"
       style="font-size:60px;font-style:italic;font-variant:normal;font-weight:normal;font-stretch:normal;text-align:center;line-height:100%;writing-mode:lr-tb;text-anchor:middle;opacity:1;fill:#000000;fill-opacity:1;fill-rule:nonzero;stroke:none;stroke-width:6;stroke-linecap:butt;stroke-miterlimit:4;stroke-dasharray:none;stroke-dashoffset:0;stroke-opacity:1;display:inline;font-family:Bitstream Vera Sans;-inkscape-font-specification:Bitstream Vera Sans Italic"
       xml:space="preserve"><tspan
         id="tspan3258"
         y="864.03455"
         x="1281.5724"
         sodipodi:role="line">Esquilino-</tspan><tspan
         y="924.03455"
         x="1281.5724"
         sodipodi:role="line"
         id="tspan3260">San Giovanni</tspan></text>
    <text
       xml:space="preserve"
       style="font-size:60px;font-style:italic;font-variant:normal;font-weight:normal;font-stretch:normal;text-align:center;line-height:100%;writing-mode:lr-tb;text-anchor:middle;opacity:1;fill:#000000;fill-opacity:1;fill-rule:nonzero;stroke:none;stroke-width:6;stroke-linecap:butt;stroke-miterlimit:4;stroke-dasharray:none;stroke-dashoffset:0;stroke-opacity:1;display:inline;font-family:Bitstream Vera Sans;-inkscape-font-specification:Bitstream Vera Sans Italic"
       x="901.57239"
       y="944.03455"
       id="text3262"
       sodipodi:linespacing="100%"><tspan
         id="tspan3266"
         sodipodi:role="line"
         x="901.57239"
         y="944.03455">Colosseo</tspan></text>
    <text
       xml:space="preserve"
       style="font-size:60px;font-style:italic;font-variant:normal;font-weight:normal;font-stretch:normal;text-align:center;line-height:100%;writing-mode:lr-tb;text-anchor:middle;opacity:1;fill:#000000;fill-opacity:1;fill-rule:nonzero;stroke:none;stroke-width:6;stroke-linecap:butt;stroke-miterlimit:4;stroke-dasharray:none;stroke-dashoffset:0;stroke-opacity:1;display:inline;font-family:Bitstream Vera Sans;-inkscape-font-specification:Bitstream Vera Sans Italic"
       x="1461.5724"
       y="1252.0344"
       id="text3270"
       sodipodi:linespacing="100%"><tspan
         id="tspan3274"
         sodipodi:role="line"
         x="1461.5724"
         y="1252.0344">South</tspan></text>
    <text
       sodipodi:linespacing="100%"
       id="text3278"
       y="-327.96558"
       x="201.57239"
       style="font-size:60px;font-style:italic;font-variant:normal;font-weight:normal;font-stretch:normal;text-align:center;line-height:100%;writing-mode:lr-tb;text-anchor:middle;opacity:1;fill:#000000;fill-opacity:1;fill-rule:nonzero;stroke:none;stroke-width:6;stroke-linecap:butt;stroke-miterlimit:4;stroke-dasharray:none;stroke-dashoffset:0;stroke-opacity:1;display:inline;font-family:Bitstream Vera Sans;-inkscape-font-specification:Bitstream Vera Sans Italic"
       xml:space="preserve"><tspan
         y="-327.96558"
         x="201.57239"
         sodipodi:role="line"
         id="tspan3280">North</tspan></text>
    <text
       sodipodi:linespacing="100%"
       id="text3199"
       y="1156.0344"
       x="839.57239"
       style="font-size:60px;font-style:italic;font-variant:normal;font-weight:normal;font-stretch:normal;text-align:center;line-height:100%;writing-mode:lr-tb;text-anchor:middle;opacity:1;fill:#000000;fill-opacity:1;fill-rule:nonzero;stroke:none;stroke-width:6;stroke-linecap:butt;stroke-miterlimit:4;stroke-dasharray:none;stroke-dashoffset:0;stroke-opacity:1;display:inline;font-family:Bitstream Vera Sans;-inkscape-font-specification:Bitstream Vera Sans Italic"
       xml:space="preserve"><tspan
         y="1156.0344"
         x="839.57239"
         sodipodi:role="line"
         id="tspan3203">Aventino-</tspan><tspan
         y="1216.0344"
         x="839.57239"
         sodipodi:role="line"
         id="tspan3208">Testaccio</tspan></text>
  </g>
  <g
     inkscape:groupmode="layer"
     id="layer4"
     inkscape:label="frame">
    <rect
       style="opacity:1;fill:none;fill-opacity:0.99992795000000001;stroke:none;stroke-width:1;stroke-linecap:butt;stroke-miterlimit:4;stroke-dasharray:none;stroke-dashoffset:0;stroke-opacity:1"
       id="rect3854"
       width="1779.4786"
       height="1917.8545"
       x="-1.7041779"
       y="-499.47778"
       inkscape:export-filename="C:\Documents and Settings\ugtu767t\Desktop\wikitravel\Europe\Italy\Rome\Roma districts map.png"
       inkscape:export-xdpi="151.73"
       inkscape:export-ydpi="151.73" />
  </g>
</svg>
